<svg width="80" height="80" viewBox="0 0 80 80" fill="none" xmlns="http://www.w3.org/2000/svg">
<rect width="80" height="80" rx="20" fill="#00F1FE"/>
<rect width="80" height="80" rx="20" fill="url(#paint0_linear_54_244)"/>
<rect width="80" height="80" rx="20" fill="url(#paint1_linear_54_244)" fill-opacity="0.7"/>
<path d="M41.5675 28.5417L41.5605 18.544C41.5603 17.8511 41.4762 15.5491 41.5912 15.0637L41.6752 15.0248C44.7401 14.9943 47.1602 14.8033 50.0749 16.2557C53.1825 17.787 55.6171 20.6533 56.8368 24.2165C55.6037 22.9202 54.34 22.0436 52.7097 21.5178C50.4988 20.8961 48.1625 21.2015 46.1371 22.3769C43.83 23.7328 42.3439 25.7676 41.5675 28.5417Z" fill="#2E2E2E"/>
<path d="M32.7785 36.4812C31.1893 34.7487 30.0747 32.543 29.5661 30.1238C28.9269 26.9962 29.3821 23.4772 30.9181 20.759C32.6131 17.7592 35.2092 15.7744 38.2868 15.0029C38.3257 14.9949 38.3734 15.0055 38.413 15.0091C38.5242 15.2662 38.4388 37.5074 38.4275 40C36.2337 39.4 34.4076 38.2372 32.7785 36.4812Z" fill="#2E2E2E"/>
<path d="M15.0562 39.9522C14.9971 36.5997 14.7415 33.8503 16.1498 30.6204C17.6476 27.1856 20.5944 24.7803 24.2773 23.3333L24.3041 23.3573C24.1759 23.6557 23.7165 24.0124 23.4903 24.2943C23.1458 24.7193 22.8349 25.1659 22.5602 25.6307C21.1406 28.0129 20.9089 30.9941 21.7649 33.5716C22.5471 35.8501 24.1966 37.8028 26.4194 39.0816C27.0126 39.4186 27.6527 39.6406 28.2653 39.9385C26.2026 39.9784 24.1393 39.9897 22.0762 39.9723C19.7475 39.9717 17.3807 40.0468 15.0562 39.9522Z" fill="#2E2E2E"/>
<path d="M41.5306 38.9261C42.0019 36.8065 42.8726 34.8451 44.2005 33.1669C46.2591 30.563 49.2118 28.9178 52.4173 28.5887C52.8075 28.5271 53.2593 28.5404 53.6532 28.5496C56.0274 28.6245 58.3297 29.424 60.279 30.8509C62.2442 32.3124 63.8396 34.4681 64.5726 36.89C64.775 37.5584 64.8889 38.2344 65 38.9241C61.4186 38.9927 57.8289 38.9379 54.2467 38.9322L41.5306 38.9261Z" fill="#2E2E2E"/>
<path d="M41.5626 65C41.5206 57.0139 41.52 49.0277 41.5608 41.0417C43.9281 41.2872 46.194 42.6069 47.8772 44.1979C50.2673 46.4541 51.6522 49.5367 51.7331 52.7802C51.7835 56.14 50.6387 59.1756 48.2244 61.5985C46.3272 63.4875 44.2257 64.5275 41.5626 65Z" fill="#2E2E2E"/>
<path d="M55.7436 58.75C56.6301 57.6217 57.2944 57.0914 57.9711 55.7303C59.2261 53.223 59.3884 50.3296 58.4211 47.7045C58.1429 46.9436 57.7564 46.2536 57.3099 45.5753C55.87 43.3876 54.0985 42.1908 51.7347 41.0951C53.2297 40.9845 54.8016 41.0797 56.304 41.0802L64.9903 41.0933L64.9916 44.4257C64.9951 45.2614 65.0237 46.108 64.9509 46.9412C64.6228 50.6981 62.6599 54.1285 59.7113 56.5414C58.5029 57.4933 57.1698 58.1677 55.7436 58.75Z" fill="#2E2E2E"/>
<path d="M36.0679 48.5422C34.3597 49.9867 31.8908 51.0235 29.502 51.3448C26.3973 51.7421 23.2317 51.0876 20.7023 49.5252C18.1986 47.9922 16.5162 45.6925 16.0204 43.125L39.4898 43.1437C38.9385 45.2934 37.8934 46.9641 36.0679 48.5422Z" fill="#2E2E2E"/>
<path d="M23.1632 57.1221C24.2102 57.9205 25.3277 58.6962 26.6035 59.1597C28.9133 59.9991 31.6227 59.9358 33.8975 59.0327C36.5562 57.9772 38.3584 55.9698 39.4026 53.5417C39.5489 53.9923 39.4667 56.4131 39.4668 57.0819C39.467 59.7111 39.5344 62.3589 39.4274 64.9857C38.6324 65.0183 37.8211 64.9851 37.0246 64.9835C36.1347 64.9817 35.2264 65.0113 34.3392 64.9429C30.8099 64.6708 27.6245 63.059 25.3594 60.5895C24.434 59.5415 23.7343 58.3612 23.1632 57.1221Z" fill="#2E2E2E"/>
<defs>
<linearGradient id="paint0_linear_54_244" x1="40.0613" y1="-28.7302" x2="40.0613" y2="62.2222" gradientUnits="userSpaceOnUse">
<stop offset="0.00520833" stop-color="white" stop-opacity="0.08"/>
<stop offset="0.0851933" stop-opacity="0.08"/>
<stop offset="0.336988" stop-color="white" stop-opacity="0.1"/>
<stop offset="0.660917" stop-color="white" stop-opacity="0.1"/>
<stop offset="1" stop-opacity="0.1"/>
</linearGradient>
<linearGradient id="paint1_linear_54_244" x1="40" y1="0" x2="40" y2="80" gradientUnits="userSpaceOnUse">
<stop stop-color="#00D068"/>
<stop offset="1" stop-color="white" stop-opacity="0"/>
</linearGradient>
</defs>
</svg>
